<?xml version="1.0" standalone="no"?>
<!DOCTYPE svg PUBLIC "-//W3C//DTD SVG 20010904//EN"
 "http://www.w3.org/TR/2001/REC-SVG-20010904/DTD/svg10.dtd">
<svg version="1.0" xmlns="http://www.w3.org/2000/svg"
 width="700.000000pt" height="700.000000pt" viewBox="0 0 700.000000 700.000000"
 preserveAspectRatio="xMidYMid meet">
<metadata>
Created by potrace 1.11, written by Peter Selinger 2001-2013
</metadata>
<g transform="translate(0.000000,700.000000) scale(0.100000,-0.100000)"
fill="#000000" stroke="none">
<path d="M3225 6994 c-241 -24 -499 -70 -670 -120 -826 -238 -1508 -737 -1980
-1448 -243 -367 -417 -786 -505 -1216 -56 -278 -64 -367 -64 -710 0 -343 8
-432 64 -710 224 -1100 978 -2034 2015 -2495 298 -132 620 -222 975 -272 179
-25 701 -25 880 0 733 103 1344 382 1890 863 556 489 952 1174 1100 1904 56
278 64 367 64 710 0 343 -8 432 -64 710 -242 1192 -1117 2193 -2265 2593 -244
85 -460 137 -720 173 -114 15 -617 28 -720 18z m1081 -361 c17 -35 19 -65 18
-353 0 -173 -6 -483 -14 -688 -7 -204 -11 -375 -8 -378 4 -3 43 -2 87 2 l81 7
0 271 c0 263 14 652 26 749 11 88 76 134 120 86 17 -19 19 -38 19 -228 -1
-113 -7 -307 -14 -431 -7 -124 -16 -286 -20 -360 -9 -157 -29 -217 -82 -249
-32 -20 -50 -24 -170 -36 l-57 -6 -8 -127 c-18 -283 -8 -705 35 -1452 59
-1047 62 -1131 65 -1494 l1 -330 65 4 c164 11 207 2 229 -47 20 -43 13 -66
-30 -96 l-40 -29 -84 12 c-92 13 -114 9 -162 -26 -37 -28 -62 -29 -118 -8 -22
9 -84 22 -137 30 -101 14 -141 28 -170 61 -16 17 -16 22 -4 39 12 16 31 20
134 24 130 5 145 11 169 67 16 39 17 209 3 433 -5 85 -16 340 -25 565 -9 226
-23 574 -31 775 -8 201 -18 629 -21 951 l-6 587 -41 7 c-22 3 -79 10 -125 15
-123 13 -166 49 -190 160 -10 45 -52 877 -51 1020 0 89 24 140 64 140 32 0 73
-49 80 -97 12 -77 27 -507 27 -791 l1 -294 31 5 c18 3 68 16 112 30 l80 25 7
43 c3 24 7 154 7 289 1 358 20 955 32 1031 20 125 76 170 115 92z m-1439
-1379 c102 -21 143 -42 238 -122 59 -50 87 -82 106 -122 49 -100 133 -482 163
-743 28 -234 29 -328 6 -512 -12 -93 -22 -188 -22 -210 0 -22 -5 -51 -10 -65
-5 -14 -15 -64 -23 -112 -7 -48 -22 -107 -34 -132 -59 -120 -191 -216 -345
-251 l-29 -6 7 -282 c4 -155 18 -487 32 -737 33 -621 47 -1068 39 -1234 l-7
-139 106 7 c126 9 169 -2 191 -44 23 -45 18 -66 -26 -101 l-40 -32 -69 12
c-101 16 -121 14 -173 -19 -44 -28 -50 -29 -98 -20 -29 6 -57 14 -63 19 -6 5
-53 14 -105 20 -141 17 -211 62 -161 103 24 19 48 22 151 18 80 -2 120 15 140
62 19 45 18 199 -3 643 -10 198 -25 538 -33 755 -8 217 -20 505 -25 640 -5
135 -10 266 -10 293 0 42 -3 49 -27 59 -150 60 -221 115 -297 227 -84 125
-143 275 -186 469 -61 276 -70 561 -30 872 5 41 15 140 20 220 6 80 17 172 26
205 26 103 86 185 167 226 93 48 283 62 424 33z"/>
<path d="M2640 5191 c-142 -44 -225 -181 -276 -456 -16 -84 -19 -152 -19 -430
0 -322 1 -333 27 -455 97 -447 203 -661 373 -752 152 -82 303 -32 382 127 28
55 89 247 102 320 6 33 15 146 21 250 25 422 -30 853 -140 1102 -47 107 -143
219 -220 258 -77 39 -188 55 -250 36z"/>
</g>
</svg>
