<?xml version="1.0" encoding="utf-8"?>
<!-- Generator: Adobe Illustrator 18.1.1, SVG Export Plug-In . SVG Version: 6.00 Build 0)  -->
<!DOCTYPE svg PUBLIC "-//W3C//DTD SVG 1.1//EN" "http://www.w3.org/Graphics/SVG/1.1/DTD/svg11.dtd">
<svg version="1.1" id="Layer_1" xmlns="http://www.w3.org/2000/svg" xmlns:xlink="http://www.w3.org/1999/xlink" x="0px" y="0px"
	 viewBox="0 0 595.3 419.5" enable-background="new 0 0 595.3 419.5" xml:space="preserve">
<path d="M301.8,315.3c29-37.6,64-68.5,105.9-95c-40.2-33.9-79.1-66.9-119.1-100.7c-3.8,29.1-7.7,57.7-2.9,87.4
	c-4.8,3.5-8.2,2.5-8.3-4.5c-0.3-17.7-0.5-35.5,0.4-53.1c0.6-12,2.7-24,4.9-35.8c1-5.2,4.1-10,7.1-16.8c2.3,3.4,3.6,4.7,3.4,5.2
	c-5.2,10,1.9,14.9,8.2,20.2c33.4,28.1,66.7,56.4,100.1,84.5c4.7,4,9.9,7.4,16.3,12.2c-8.5,6.7-13.2,11.1-18.6,14.5
	c-34,21.6-62.4,49.3-87.8,80.3c-0.7,0.9-1.4,1.9-2.2,2.8c-8.4,9-13.4,8.8-18-2.8c-4-10-5.9-20.9-8.7-31.4c-0.4-1.4-0.2-3-0.6-4.4
	c-1.8-7.1-2.1-15.4-6.1-21.1c-5.3-7.6-13.2,0.1-20,0.1c-13.6,0.2-27.1,1.1-40.7,1.7c-7.1,0.3-10.1-2.6-9.7-10.1
	c0.6-11.2-0.1-22.5,0.8-33.6c0.3-3.1,3.9-8.3,6.5-8.6c18.2-2,36.4-3.1,54.7-4.1c2.6-0.1,5.4,1.8,7.5,4.3
	c-20.4,1.9-40.9,3.7-61.9,5.6c0,13.8,0,26.3,0,40.9c22.2-1.7,44.1-3.4,68.4-5.3c5.2,21.6,10.6,44.3,16.1,67.1
	C298.9,315,300.3,315.1,301.8,315.3z"/>
</svg>
