<?xml version="1.0" standalone="no"?>
<!DOCTYPE svg PUBLIC "-//W3C//DTD SVG 20010904//EN"
 "http://www.w3.org/TR/2001/REC-SVG-20010904/DTD/svg10.dtd">
<svg version="1.0" xmlns="http://www.w3.org/2000/svg"
 width="697.000000pt" height="563.000000pt" viewBox="0 0 697.000000 563.000000"
 preserveAspectRatio="xMidYMid meet">
<g transform="translate(0.000000,563.000000) scale(0.100000,-0.100000)"
fill="#000000" stroke="none">
<path d="M2925 5607 c-9 -14 -20 -40 -26 -58 -13 -43 -28 -513 -29 -874 l0
-281 -62 -18 c-35 -10 -75 -20 -90 -23 l-28 -5 0 258 c0 349 -15 636 -35 674
-33 63 -95 57 -112 -12 -9 -36 -3 -283 16 -658 17 -346 33 -380 179 -393 38
-4 83 -10 100 -13 l32 -6 0 -413 c0 -227 7 -577 15 -776 55 -1327 60 -1522 45
-1559 -15 -37 -30 -41 -140 -43 -71 -2 -93 -6 -107 -20 -40 -39 34 -88 146
-95 42 -3 85 -11 96 -18 11 -7 36 -15 55 -19 28 -5 42 -1 69 19 38 28 69 32
150 16 49 -9 55 -8 87 16 51 39 45 92 -15 124 -18 9 -49 11 -111 6 l-87 -6 -6
352 c-7 363 -10 434 -52 1108 -49 795 -50 860 -29 1256 l5 102 37 6 c20 3 52
6 70 6 54 0 100 28 124 74 18 35 23 67 29 216 5 96 13 247 19 335 5 88 10 222
10 298 0 133 -1 139 -25 162 -13 14 -30 25 -38 25 -25 0 -56 -45 -66 -95 -12
-55 -29 -632 -23 -761 l3 -81 -53 -6 c-29 -4 -60 -7 -68 -7 -13 0 -14 35 -3
297 6 164 12 420 12 568 1 238 -1 274 -17 305 -21 44 -54 51 -77 17z"/>
<path d="M1568 4460 c-151 -24 -236 -103 -267 -247 -6 -29 -15 -112 -21 -185
-5 -73 -14 -167 -19 -208 -19 -152 -23 -286 -11 -405 43 -443 189 -742 400
-821 25 -10 48 -20 52 -23 4 -4 14 -182 23 -396 34 -855 47 -1208 52 -1387 l5
-187 -25 -25 c-24 -24 -33 -26 -115 -26 -72 0 -94 -4 -112 -18 -19 -15 -21
-22 -12 -39 15 -28 81 -53 160 -60 37 -4 77 -12 92 -20 35 -18 87 -16 118 5
42 29 55 31 130 20 65 -10 72 -10 106 11 28 18 36 29 36 52 0 36 -39 78 -72
80 -43 2 -143 -2 -160 -7 -17 -5 -18 10 -18 213 0 245 -11 533 -40 1018 -11
181 -20 425 -20 541 l0 211 59 16 c138 38 252 155 272 277 5 36 15 85 20 110
5 25 10 52 10 60 1 8 10 89 21 180 18 148 19 179 9 309 -14 163 -39 324 -76
491 -44 193 -63 247 -103 292 -59 65 -150 129 -211 148 -70 22 -207 31 -283
20z m247 -95 c59 -28 138 -112 174 -183 36 -72 90 -259 106 -372 22 -150 31
-490 16 -655 -16 -196 -71 -376 -137 -454 -59 -71 -159 -90 -249 -47 -70 32
-107 66 -163 150 -56 84 -113 244 -158 447 -28 121 -28 132 -29 424 0 270 2
310 22 397 37 169 90 259 176 303 45 23 61 26 119 22 46 -3 85 -13 123 -32z"/>
<path d="M4813 4460 c-20 -8 -23 -17 -23 -62 0 -153 42 -1727 61 -2263 18
-520 19 -638 9 -731 -13 -120 -9 -139 32 -168 32 -23 63 -20 114 10 45 26 47
27 201 22 175 -5 183 -3 183 62 0 59 -33 80 -125 80 -44 0 -88 -6 -111 -16
-43 -18 -114 -15 -140 7 -14 12 -16 29 -10 124 4 73 -1 217 -15 430 -14 213
-21 421 -20 620 0 175 -7 387 -16 510 -9 129 -18 428 -22 777 -7 621 -3 590
-66 601 -16 3 -40 2 -52 -3z"/>
<path d="M765 4413 c-33 -2 -123 -10 -200 -19 -248 -27 -389 -58 -415 -89 -17
-21 -3 -53 32 -71 26 -14 45 -14 159 -3 111 10 132 10 144 -2 34 -35 38 -91
45 -624 5 -342 15 -640 29 -840 32 -491 35 -638 17 -954 -25 -448 -21 -512 38
-555 25 -19 29 -19 54 -6 52 30 54 58 42 565 -6 253 -10 516 -9 585 1 81 -4
158 -14 220 -27 156 -37 419 -35 905 2 338 -1 496 -11 594 l-14 135 24 19 c21
17 34 18 140 12 110 -7 118 -6 138 14 23 23 26 43 10 73 -12 22 -68 49 -96 46
-10 -1 -45 -3 -78 -5z"/>
<path d="M4255 4413 c-91 -5 -326 -32 -429 -50 -107 -18 -196 -49 -196 -68 0
-27 13 -46 42 -61 26 -14 46 -14 159 -3 111 10 132 10 144 -2 34 -35 38 -91
45 -629 5 -348 15 -645 28 -850 33 -503 35 -618 14 -1005 -16 -304 -17 -357
-5 -405 21 -84 62 -116 108 -86 42 28 46 79 35 534 -6 229 -10 489 -9 577 1
109 -4 187 -14 247 -28 148 -38 411 -35 891 2 327 -2 505 -11 610 -17 188 -24
180 145 171 115 -6 123 -5 143 15 23 23 26 43 10 73 -12 22 -68 49 -96 46 -10
-1 -45 -3 -78 -5z"/>
<path d="M6403 4389 c-74 -27 -173 -419 -323 -1269 -50 -283 -110 -614 -135
-735 -24 -121 -65 -337 -90 -480 -53 -303 -77 -408 -113 -488 l-25 -58 21 -21
c15 -16 34 -22 69 -22 l47 -1 17 56 c10 31 34 146 54 255 43 238 72 351 96
375 22 22 81 19 294 -16 153 -26 250 -56 265 -84 5 -10 10 -149 11 -310 2
-283 2 -292 23 -306 31 -22 102 -19 126 5 26 26 26 42 -5 695 -18 403 -27 519
-39 554 -13 33 -17 77 -16 190 1 80 -4 162 -10 181 -6 19 -26 220 -45 445 -75
881 -88 978 -132 1017 -22 19 -63 27 -90 17z m57 -669 c75 -524 127 -1198 118
-1520 l-3 -115 -120 -3 c-130 -3 -238 7 -353 33 l-72 17 0 38 c0 55 26 184 71
349 45 166 71 307 129 706 48 324 82 506 111 595 11 34 18 68 15 76 -5 13 26
133 40 156 10 16 24 -56 64 -332z"/>
<path d="M2480 902 c-82 -24 -142 -88 -172 -183 -19 -63 -22 -96 -22 -219 0
-308 73 -415 291 -427 87 -5 250 10 264 25 5 4 5 26 2 48 l-5 42 -147 -2
c-107 -1 -153 3 -171 13 -84 46 -104 105 -104 296 0 148 10 204 45 249 42 54
70 61 232 60 l147 -2 0 48 0 48 -75 11 c-104 15 -219 13 -285 -7z"/>
<path d="M3199 906 c-65 -17 -109 -46 -146 -94 -48 -63 -65 -129 -70 -274 -14
-350 88 -479 371 -466 216 10 293 90 318 329 21 194 -15 359 -94 438 -71 72
-246 103 -379 67z m246 -116 c71 -34 105 -130 105 -295 -1 -172 -29 -256 -101
-293 -39 -21 -55 -23 -136 -20 -107 4 -133 18 -173 89 -24 42 -25 51 -25 219
0 167 1 177 25 225 34 69 86 95 189 95 54 0 86 -5 116 -20z"/>
<path d="M4120 901 c-30 -10 -70 -25 -87 -35 l-33 -17 0 26 c0 24 -3 25 -60
25 l-60 0 0 -405 0 -405 60 0 60 0 2 332 3 333 60 24 c46 19 80 25 142 25 166
2 181 -39 182 -491 l1 -223 60 0 60 0 0 288 c-1 158 -5 307 -9 331 l-9 43 42
18 c59 26 158 43 212 37 52 -6 93 -31 112 -71 21 -41 31 -188 32 -428 l0 -218
60 0 60 0 0 283 c0 310 -10 391 -55 459 -68 103 -268 118 -454 33 l-53 -25
-34 29 c-18 17 -50 35 -71 40 -57 16 -161 12 -223 -8z"/>
</g>
</svg>
