<?xml version="1.0" encoding="UTF-8" standalone="no"?>
<!-- Generator: Adobe Illustrator 18.1.1, SVG Export Plug-In . SVG Version: 6.00 Build 0)  -->

<svg
   xmlns:dc="http://purl.org/dc/elements/1.1/"
   xmlns:cc="http://creativecommons.org/ns#"
   xmlns:rdf="http://www.w3.org/1999/02/22-rdf-syntax-ns#"
   xmlns:svg="http://www.w3.org/2000/svg"
   xmlns="http://www.w3.org/2000/svg"
   xmlns:sodipodi="http://sodipodi.sourceforge.net/DTD/sodipodi-0.dtd"
   xmlns:inkscape="http://www.inkscape.org/namespaces/inkscape"
   version="1.1"
   id="Layer_1"
   x="0px"
   y="0px"
   viewBox="0 0 219.70823 240.2"
   enable-background="new 0 0 595.3 419.5"
   xml:space="preserve"
   inkscape:version="0.91 r13725"
   sodipodi:docname="black-user.svg"
   width="219.70822"
   height="240.2"><metadata
     id="metadata83"><rdf:RDF><cc:Work
         rdf:about=""><dc:format>image/svg+xml</dc:format><dc:type
           rdf:resource="http://purl.org/dc/dcmitype/StillImage" /><dc:title></dc:title></cc:Work></rdf:RDF></metadata><defs
     id="defs81" /><sodipodi:namedview
     pagecolor="#ffffff"
     bordercolor="#666666"
     borderopacity="1"
     objecttolerance="10"
     gridtolerance="10"
     guidetolerance="10"
     inkscape:pageopacity="0"
     inkscape:pageshadow="2"
     inkscape:window-width="640"
     inkscape:window-height="480"
     id="namedview79"
     showgrid="false"
     fit-margin-top="0"
     fit-margin-left="0"
     fit-margin-right="0"
     fit-margin-bottom="0"
     inkscape:zoom="0.56257449"
     inkscape:cx="102.25821"
     inkscape:cy="118.35"
     inkscape:window-x="0"
     inkscape:window-y="0"
     inkscape:window-maximized="0"
     inkscape:current-layer="Layer_1" /><g
     id="g73"
     transform="translate(-195.39179,-87.9)"><path
       d="m 305.2,327.9 c -21.4,0 -42.8,0 -64.2,0 -9.1,0 -17.9,-0.6 -26.2,-5 -11.1,-5.9 -17.9,-15.3 -18.8,-27.5 -2,-25.3 0.6,-50.1 12.8,-73 6.7,-12.7 17,-20.9 31.4,-23.6 5.9,-1.1 11.3,-0.9 16.5,3 9.2,6.8 19.1,12.4 30.3,15.4 19.9,5.3 38.4,1.9 56,-8.3 4.3,-2.5 8.5,-5.3 12.5,-8.2 4.5,-3.3 9.5,-2.8 14.4,-1.9 14.1,2.5 24.3,10.5 31.4,22.8 7.3,12.6 10.7,26.4 12.3,40.6 1,9 1.5,18.1 1.5,27.2 0,10.5 -3.3,20 -11,27.5 -6.6,6.4 -14.6,10.3 -23.6,10.6 -22.4,0.6 -44.8,0.4 -67.2,0.6 -2.8,-0.2 -5.5,-0.2 -8.1,-0.2 z"
       id="path75"
       inkscape:connector-curvature="0" /><path
       d="m 365.2,147.9 c 0,33.4 -26.5,59.9 -59.9,60 -33.4,0.1 -60.1,-26.6 -60,-60.2 0,-33.2 26.6,-59.7 59.9,-59.8 33.3,0 60,26.6 60,60 z"
       id="path77"
       inkscape:connector-curvature="0" /></g></svg>