<?xml version="1.0" encoding="UTF-8" standalone="no"?>
<!-- Generator: Adobe Illustrator 18.1.1, SVG Export Plug-In . SVG Version: 6.00 Build 0)  -->

<svg
   xmlns:dc="http://purl.org/dc/elements/1.1/"
   xmlns:cc="http://creativecommons.org/ns#"
   xmlns:rdf="http://www.w3.org/1999/02/22-rdf-syntax-ns#"
   xmlns:svg="http://www.w3.org/2000/svg"
   xmlns="http://www.w3.org/2000/svg"
   xmlns:sodipodi="http://sodipodi.sourceforge.net/DTD/sodipodi-0.dtd"
   xmlns:inkscape="http://www.inkscape.org/namespaces/inkscape"
   version="1.1"
   id="Layer_1"
   x="0px"
   y="0px"
   viewBox="0 0 179.9 220.10518"
   enable-background="new 0 0 595.3 419.5"
   xml:space="preserve"
   inkscape:version="0.91 r13725"
   sodipodi:docname="black-lock.svg"
   width="179.89999"
   height="220.10518"><metadata
     id="metadata27"><rdf:RDF><cc:Work
         rdf:about=""><dc:format>image/svg+xml</dc:format><dc:type
           rdf:resource="http://purl.org/dc/dcmitype/StillImage" /><dc:title></dc:title></cc:Work></rdf:RDF></metadata><defs
     id="defs25" /><sodipodi:namedview
     pagecolor="#ffffff"
     bordercolor="#666666"
     borderopacity="1"
     objecttolerance="10"
     gridtolerance="10"
     guidetolerance="10"
     inkscape:pageopacity="0"
     inkscape:pageshadow="2"
     inkscape:window-width="640"
     inkscape:window-height="480"
     id="namedview23"
     showgrid="false"
     fit-margin-top="0"
     fit-margin-left="0"
     fit-margin-right="0"
     fit-margin-bottom="0"
     inkscape:zoom="0.56257449"
     inkscape:cx="81.349994"
     inkscape:cy="107.15"
     inkscape:window-x="0"
     inkscape:window-y="0"
     inkscape:window-maximized="0"
     inkscape:current-layer="Layer_1" /><path
     d="m 159.9,99.905181 c 2.8,0.199999 5.2,0.199999 7.6,0.599999 7.1,1 12.4,7.2 12.4,14.4 0,29.8 0,59.6 0,89.5 0,9.1 -5.8,15.2 -14.9,15.7 -0.6,0 -1.2,0 -1.7,0 -48.9,0 -97.8,-0.1 -146.7,0 -9.6,0 -14.5,-5.3 -16.2,-11.6 -0.4,-1.3 -0.4,-2.6 -0.4,-4 0,-29.6 0,-59.1 0,-88.7 0,-9.2 6,-15.4 15.1,-15.7 1.5,-0.1 3,0 4.9,0 0,-0.999999 0,-1.899999 0,-2.799999 0,-9 0.1,-18 0,-27 -0.6,-36.9 28.8,-62.9999995 53.8,-68.4999995 44.8,-9.9 81.1,22.4999995 85.5,58.5999995 0.9,7.6 0.5,15.3 0.7,23 -0.1,5.5 -0.1,10.9 -0.1,16.5 z m -30,0.1 c 0,-10.099999 -0.2,-19.899999 0,-29.699999 0.5,-22.9 -20.1,-44.2 -47.5,-39.6 -18.4,3.1 -32.5,20 -32.6,38.6 0,9.5 0,19 0,28.5 0,0.7 0.1,1.4 0.1,2.299999 26.7,-0.1 53.2,-0.1 80,-0.1 z"
     id="path21"
     inkscape:connector-curvature="0" /></svg>