<?xml version="1.0" encoding="UTF-8" standalone="no"?>
<!-- License Agreement at http://iconmonstr.com/license/ -->

<svg
   xmlns:dc="http://purl.org/dc/elements/1.1/"
   xmlns:cc="http://creativecommons.org/ns#"
   xmlns:rdf="http://www.w3.org/1999/02/22-rdf-syntax-ns#"
   xmlns:svg="http://www.w3.org/2000/svg"
   xmlns="http://www.w3.org/2000/svg"
   xmlns:sodipodi="http://sodipodi.sourceforge.net/DTD/sodipodi-0.dtd"
   xmlns:inkscape="http://www.inkscape.org/namespaces/inkscape"
   version="1.1"
   x="0px"
   y="0px"
   width="412"
   height="401.74399"
   viewBox="0 0 412 401.74399"
   enable-background="new 0 0 512 512"
   xml:space="preserve"
   id="svg38"
   inkscape:version="0.91 r13725"
   sodipodi:docname="black-post-edit.svg"><metadata
     id="metadata45"><rdf:RDF><cc:Work
         rdf:about=""><dc:format>image/svg+xml</dc:format><dc:type
           rdf:resource="http://purl.org/dc/dcmitype/StillImage" /><dc:title></dc:title></cc:Work></rdf:RDF></metadata><defs
     id="defs43" /><sodipodi:namedview
     pagecolor="#ffffff"
     bordercolor="#666666"
     borderopacity="1"
     objecttolerance="10"
     gridtolerance="10"
     guidetolerance="10"
     inkscape:pageopacity="0"
     inkscape:pageshadow="2"
     inkscape:window-width="640"
     inkscape:window-height="480"
     id="namedview41"
     showgrid="false"
     fit-margin-top="0"
     fit-margin-left="0"
     fit-margin-right="0"
     fit-margin-bottom="0"
     inkscape:zoom="0.4609375"
     inkscape:cx="206"
     inkscape:cy="200.872"
     inkscape:window-x="0"
     inkscape:window-y="0"
     inkscape:window-maximized="0"
     inkscape:current-layer="svg38" /><path
     id="note-19-icon"
     d="m 146.231,241.484 -72.128,0 0,-27.31 72.128,0 0,27.31 z M 412,60.728 265.839,206.817 205.079,146.091 351.241,0 412,60.728 Z m -113.722,158.57 c 0,17.83 0,31.954 0,38.671 0,58.959 -72.79,35.338 -72.79,35.338 0,0 22.287,71.074 -32.691,71.074 -29.948,0 -44.896,0 -155.434,0 l 0,-310.109 214.654,0 37.381,-37.362 -289.398,0 0,384.834 193.366,0 c 63.67,0 142.274,-83.196 142.274,-140.55 l 0,-79.241 -37.362,37.345 z m -109.865,-54.822 58.966,58.932 -78.021,17.661 19.055,-76.593 z"
     inkscape:connector-curvature="0" /></svg>