<?xml version="1.0" encoding="utf-8"?>
<!-- Generator: Adobe Illustrator 18.1.1, SVG Export Plug-In . SVG Version: 6.00 Build 0)  -->
<!DOCTYPE svg PUBLIC "-//W3C//DTD SVG 1.1//EN" "http://www.w3.org/Graphics/SVG/1.1/DTD/svg11.dtd">
<svg version="1.1" id="Layer_1" xmlns="http://www.w3.org/2000/svg" xmlns:xlink="http://www.w3.org/1999/xlink" x="0px" y="0px"
	 viewBox="0 0 595.3 419.5" enable-background="new 0 0 595.3 419.5" xml:space="preserve">
<g>
	<path stroke="#000000" stroke-width="5" stroke-miterlimit="10" d="M302.1,296.4c-17.9,0-35.9,0-53.8,0c-6.3-0.7-12.7-1.9-19-1.9
		c-12.5,0-21.2-4.7-23.1-17.8c-2.4-16.5-4.6-33.1-6.5-49.7c-1.1-9.7-1.5-19.5-2.2-29.3c0-10,0-19.9,0-29.9c1.5-5.7,3.6-11.3,4.3-17
		c2-15.1,10-20.4,24.6-16.3c1.7,0.5,3.8-0.2,6.1-0.3c0.3-2.2,1.1-4.2,0.8-6.1c-2-12.2,1.2-20.1,15.3-20.4c20.5-0.5,41-2,61.4-1.4
		c3.7,0.1,8.3,7.2,10.6,12c2,4.1,1.3,9.5,1.9,16c8.2-1.6,15.3-2.5,22.1-4.4c23.8-6.6,44.2,5.7,48.1,29.8c2.4,14.6,3.5,29.4,5.3,44.1
		c0,6,0,12,0,17.9c-2.2,17.6-6,35.3-6,52.9c0,13.9-5.2,16.5-17.4,16.9C350.3,292.3,326.2,294.7,302.1,296.4z M365.2,182.8
		c13.6,17.9,13.2,48.7-0.2,71.4c-14.8,25.1-39.8,29.2-65.5,32.4c25.9-0.7,51.7-1.7,77.3-4c3.3-0.3,8.6-7.3,8.5-11.1
		c-1.2-38.2-2.4-76.4-5.8-114.4c-0.6-6.8-10.5-15.8-18-18.2c-8.8-2.8-19.8-0.6-29.5,1.2c-12.1,2.2-18.1-0.5-16.9-13.9
		c1.1-12.1-4.8-16.5-17.1-15.2c-15.8,1.6-31.7,2.1-47.6,2.3c-9,0.1-13.1,3.6-11.7,12.6c0.6,4.1,1.6,8.1,2.4,12.1
		c-29.1,3.4-35.6,6.9-35.1,27.7c0.8,34.6,4.1,69.2,7.5,103.7c0.6,5.9,6.7,15.4,11.3,16.1c19.9,3,40.3,3.4,60.5,4.7
		c0.1-1.4,0.1-2.7,0.2-4.1c-39.4-8.7-59.5-30.4-60-64.8c-0.5-36,22.4-67.1,55.7-75.5c32-8.1,74.4,10.7,84.4,37.4
		c-19.9-25.1-46.2-33.3-77.4-30.8c-27.4,2.2-45.1,15.2-53.6,41.6c-8.6,26.6-1.3,57.6,17,72.7c36.9,30.5,105.9,10,116.9-36.5
		C372.2,215.7,366.6,198.8,365.2,182.8z"/>
	<path stroke="#000000" stroke-width="5" stroke-miterlimit="10" d="M328.6,179.1c20.5,5.6,33.1,38.2,19.1,62.8
		c-14.4,25.3-43.8,34.5-66,19.3c-24.7-16.8-40-64.5-1.8-88.1c16.6-10.3,34.9-8.4,49.2,6.5c-34.8-12.2-48.4-8.2-61.8,18
		c-10.1,19.8,1.2,51.5,21.4,59.7c23.1,9.4,45.9-1.6,55.3-25.2C352.8,210,342.5,194.3,328.6,179.1z"/>
</g>
</svg>
