<?xml version="1.0" encoding="utf-8"?>


<!-- The icon can be used freely in both personal and commercial projects with no attribution required, but always appreciated. 
You may NOT sub-license, resell, rent, redistribute or otherwise transfer the icon without express written permission from iconmonstr.com -->


<!DOCTYPE svg PUBLIC "-//W3C//DTD SVG 1.1//EN" "http://www.w3.org/Graphics/SVG/1.1/DTD/svg11.dtd">

<svg version="1.1" xmlns="http://www.w3.org/2000/svg" xmlns:xlink="http://www.w3.org/1999/xlink" x="0px" y="0px"

	 width="512px" height="512px" viewBox="0 0 512 512" enable-background="new 0 0 512 512" xml:space="preserve">

<path id="speech-bubble-13-icon" d="M50.984,393.104c14.959-29.754,31.564-70.595,30.713-99.07

	c-20.152-24.301-31.537-55.616-31.537-87.512c0-89.926,87.239-155.675,184.909-155.675c97.062,0,184.909,65.255,184.909,155.675

	c0,94.153-103.73,182.084-246.055,147.132C148.075,369.633,91.077,385.79,50.984,393.104z M440.434,393.909

	c27.171-32.763,29.944-81.761-0.181-118.854c-31.004,69.842-107.466,122.041-205.609,121.406

	c28.479,33.433,80.275,53.367,143.192,37.915c17.544,10.847,56.231,21.812,83.444,26.777

	C451.127,440.958,439.856,413.237,440.434,393.909z"/>

</svg>

