<?xml version="1.0" encoding="utf-8"?>
<!-- Generator: Adobe Illustrator 18.1.1, SVG Export Plug-In . SVG Version: 6.00 Build 0)  -->
<!DOCTYPE svg PUBLIC "-//W3C//DTD SVG 1.1//EN" "http://www.w3.org/Graphics/SVG/1.1/DTD/svg11.dtd">
<svg version="1.1" id="Layer_1" xmlns="http://www.w3.org/2000/svg" xmlns:xlink="http://www.w3.org/1999/xlink" x="0px" y="0px"
	 viewBox="0 0 595.3 419.5" enable-background="new 0 0 595.3 419.5" xml:space="preserve">
<path d="M311.4,130.7c3.7-3.2,7.1-6.5,10.7-9.4c10.4-8.3,21-16.1,33.8-20.5c7.5-2.6,15.1-3.9,23-3.7c10.1,0.2,20.1,1.4,29.6,5
	c22.4,8.5,35.9,24.6,41,48.1c5,22.9,0.5,43.9-11.9,63.5c-6.4,10.1-14.1,19.2-22.7,27.5c-32,30.8-64,61.6-95.9,92.4
	c-4.7,4.5-10.3,4.5-15,0c-31.8-30.7-63.6-61.5-95.5-92.1c-11.4-10.9-21.2-23.1-28.2-37.2c-10.9-21.7-11.5-44.1-3-66.6
	c5.6-14.7,16-25.6,30.2-32.6c13.6-6.7,28.1-8.6,43-7.7c12.6,0.7,23.9,5.5,34.4,12.2C294.3,115.7,303.2,122.5,311.4,130.7z"/>
</svg>
