<?xml version="1.0" encoding="utf-8"?>
<!-- Generator: Adobe Illustrator 18.1.1, SVG Export Plug-In . SVG Version: 6.00 Build 0)  -->
<!DOCTYPE svg PUBLIC "-//W3C//DTD SVG 1.1//EN" "http://www.w3.org/Graphics/SVG/1.1/DTD/svg11.dtd">
<svg version="1.1" id="Layer_1" xmlns="http://www.w3.org/2000/svg" xmlns:xlink="http://www.w3.org/1999/xlink" x="0px" y="0px"
	 viewBox="0 0 595.3 419.5" enable-background="new 0 0 595.3 419.5" xml:space="preserve">
<path d="M376.2,196.7c2.8,0.2,5.2,0.2,7.6,0.6c7.1,1,12.4,7.2,12.4,14.4c0,29.8,0,59.6,0,89.5c0,9.1-5.8,15.2-14.9,15.7
	c-0.6,0-1.2,0-1.7,0c-48.9,0-97.8-0.1-146.7,0c-9.6,0-14.5-5.3-16.2-11.6c-0.4-1.3-0.4-2.6-0.4-4c0-29.6,0-59.1,0-88.7
	c0-9.2,6-15.4,15.1-15.7c1.5-0.1,3,0,4.9,0c0-1,0-1.9,0-2.8c0-9,0.1-18,0-27c-0.6-36.9,28.8-63,53.8-68.5
	c44.8-9.9,81.1,22.5,85.5,58.6c0.9,7.6,0.5,15.3,0.7,23C376.2,185.7,376.2,191.1,376.2,196.7z M346.2,196.8c0-10.1-0.2-19.9,0-29.7
	c0.5-22.9-20.1-44.2-47.5-39.6c-18.4,3.1-32.5,20-32.6,38.6c0,9.5,0,19,0,28.5c0,0.7,0.1,1.4,0.1,2.3
	C292.9,196.8,319.4,196.8,346.2,196.8z"/>
</svg>
