<?xml version="1.0" encoding="UTF-8" standalone="no"?>
<!-- Generator: Adobe Illustrator 18.1.1, SVG Export Plug-In . SVG Version: 6.00 Build 0)  -->

<svg
   xmlns:dc="http://purl.org/dc/elements/1.1/"
   xmlns:cc="http://creativecommons.org/ns#"
   xmlns:rdf="http://www.w3.org/1999/02/22-rdf-syntax-ns#"
   xmlns:svg="http://www.w3.org/2000/svg"
   xmlns="http://www.w3.org/2000/svg"
   xmlns:sodipodi="http://sodipodi.sourceforge.net/DTD/sodipodi-0.dtd"
   xmlns:inkscape="http://www.inkscape.org/namespaces/inkscape"
   version="1.1"
   id="Layer_1"
   x="0px"
   y="0px"
   viewBox="0 0 139.53708 139.53708"
   enable-background="new 0 0 595.3 419.5"
   xml:space="preserve"
   inkscape:version="0.91 r13725"
   sodipodi:docname="toitla-icon.svg"
   width="139.53708"
   height="139.53708"><metadata
     id="metadata109"><rdf:RDF><cc:Work
         rdf:about=""><dc:format>image/svg+xml</dc:format><dc:type
           rdf:resource="http://purl.org/dc/dcmitype/StillImage" /><dc:title></dc:title></cc:Work></rdf:RDF></metadata><defs
     id="defs107" /><sodipodi:namedview
     pagecolor="#ffffff"
     bordercolor="#666666"
     borderopacity="1"
     objecttolerance="10"
     gridtolerance="10"
     guidetolerance="10"
     inkscape:pageopacity="0"
     inkscape:pageshadow="2"
     inkscape:window-width="1440"
     inkscape:window-height="900"
     id="namedview105"
     showgrid="false"
     inkscape:zoom="2.250298"
     inkscape:cx="48.095226"
     inkscape:cy="38.81057"
     inkscape:window-x="0"
     inkscape:window-y="0"
     inkscape:window-maximized="0"
     inkscape:current-layer="layer1"
     fit-margin-top="0"
     fit-margin-left="0"
     fit-margin-right="0"
     fit-margin-bottom="0" /><g
     inkscape:groupmode="layer"
     id="layer1"
     inkscape:label="circle"
     transform="translate(4.888237,14.825851)"><circle
       style="fill:#5fd35f;fill-opacity:1"
       id="path3344"
       cx="64.880302"
       cy="54.942688"
       r="69.768539" /></g><g
     inkscape:groupmode="layer"
     id="layer2"
     inkscape:label="text"
     transform="translate(4.888237,14.825851)"><g
       id="g97"
       style="fill:#000000"
       transform="translate(-64.174677,-110.71335)" /><g
       id="g101"
       style="fill:#ffffff"
       transform="translate(-64.174677,-110.71335)"><path
         id="path103"
         style="fill:#ffffff"
         d="m 123.41748,227.17002 -3.2,-0.5 c -0.7,0 -1.5,0.4 -2.3,1.2 -1.5,0 -2.4,-0.3 -2.8,-0.8 l -0.2,0 c -3.1,0 -4.8,-0.6 -5.3,-1.7 0,-0.7 0.8,-1.1 2.3,-1.1 l 2.2,0.1 c 1.3,0 2,-1 2.1,-2.9 0,-1.9 -0.1,-4.3 -0.3,-7 -0.2,-2.8 -0.3,-5.5 -0.4,-8.3 -0.1,-2.8 -0.2,-8.1 -0.6,-16 -0.3,-7.9 -0.6,-16.2 -0.6,-16.2 l 3.3,1.9 c 0,0 0,9.6 0.3,13.9 0.8,12.7 1.2,22.3 1.2,28.7 l -0.1,5.2 3.6,-0.3 c 1.7,0 2.6,0.8 2.6,2.5 l -1.8,1.3 z m 3.7,-69.8 -0.9,7.5 0.2,0.2 c -0.5,1.3 -0.8,2.5 -0.8,3.5 0,1 -0.4,2.1 -1.1,3.2 -0.7,1.1 -1.8,2.1 -3.2,3 -1.4,0.9 -2.9,1.3 -4.6,1.3 -1.6,0 -3.1,-0.4 -4.5,-1.1 -1.4,-0.7 -2.6,-1.6 -3.5,-2.8 -0.9,-1.1 -1.7,-2.5 -2.4,-4 -0.7,-1.5 -1.2,-3 -1.6,-4.5 -0.4,-1.5 -0.7,-3 -1,-4.6 -0.4,-2.6 -0.6,-4.9 -0.6,-6.9 0,-1.9 0.1,-4.1 0.4,-6.6 0.3,-2.5 0.5,-4.1 0.5,-4.8 0,-0.7 0.1,-1.3 0.1,-1.9 0,-0.5 0.1,-1.2 0.2,-2 0.1,-0.8 0.3,-1.4 0.5,-2 0.2,-0.6 0.5,-1.2 1,-1.8 0.4,-0.6 0.9,-1.1 1.6,-1.5 1.4,-0.9 3.3,-1.3 5.7,-1.3 2.5,0 4.5,0.4 6.1,1.2 0.2,0.2 0.8,0.7 1.8,1.4 1,0.7 1.7,1.4 2.1,2.1 0.5,0.7 1,2.3 1.6,4.8 1.6,6.6 2.4,12.5 2.4,17.6 z m -13.8,-25.5 c -4.9,0 -7.4,5.7 -7.4,17.2 l 0,2.3 c 0,2.7 0.3,5.6 1,8.6 0.7,3.1 1.4,5.6 2.2,7.5 0.8,1.9 1.8,3.6 3.2,4.9 1.4,1.4 2.9,2 4.6,2 2.3,0 3.9,-1.3 5,-4 1,-2.7 1.7,-5.1 1.9,-7.2 0.2,-2.9 0.3,-4.7 0.3,-5.6 l 0,-1.4 c 0,-0.7 0,-1.3 0,-1.8 0,-0.5 0,-1.3 -0.1,-2.5 0,-1.1 -0.1,-2.2 -0.2,-3 -0.1,-0.9 -0.2,-2 -0.4,-3.2 -0.2,-1.3 -0.4,-2.4 -0.7,-3.4 -0.3,-1 -0.6,-2 -1,-3.2 -0.4,-1.1 -0.8,-2.1 -1.4,-2.9 -0.5,-0.8 -1.1,-1.6 -1.8,-2.3 -1.3,-1.3 -3.1,-2 -5.2,-2 z m 28.8,8.5 -0.1,-8.4 c 0,-6.4 0.2,-14.8 0.5,-25.1 0.2,-6.4 3.3,-5.6 3.2,-0.8 0,2.4 -0.1,4.4 -0.1,5.9 0,4.4 -0.2,8.9 -0.4,13.3 -0.2,4.5 -0.3,8.3 -0.3,11.4 0,9.3 -2.8,3.7 -2.8,3.7 z m 0,-5.9 c 0,-1.7 0.9,-2.5 2.6,-2.5 l 3.6,0.3 -0.1,-5.2 c 0,-4 0.2,-9.1 0.5,-15.5 0.2,-3.9 3.3,-3.5 3.2,-0.5 0,1.5 -0.1,2.7 -0.1,3.6 0,2.7 -0.2,5.5 -0.4,8.3 -0.2,2.8 -0.3,5.1 -0.3,7 0,5.7 -3.4,5.2 -4.2,5.2 l -3.2,0.5 -1.6,-1.2 z m 0,2.2 -3.2,-0.5 c -0.7,0 -4.2,0.5 -4.2,-5.2 0,-1.9 -0.1,-4.3 -0.3,-7 -0.2,-2.8 -0.3,-5.5 -0.4,-8.3 0,-0.9 0,-2.1 -0.1,-3.6 -0.1,-3 3,-3.4 3.2,0.5 0.3,6.4 0.5,11.6 0.5,15.5 l -0.1,5.2 3.6,-0.3 c 1.7,0 2.6,0.8 2.6,2.5 l -1.6,1.2 z m 9.1,70 -3.2,-0.5 c -0.7,0 -1.5,0.4 -2.3,1.2 -1.5,0 -2.4,-0.3 -2.8,-0.8 l -0.2,0 c -3.1,0 -4.8,-0.6 -5.3,-1.7 0,-0.7 0.8,-1.1 2.3,-1.1 l 2.2,0.1 c 1.3,0 2,-1 2.1,-2.9 0,-1.9 -0.1,-4.3 -0.3,-7 -0.2,-2.8 -0.3,-5.5 -0.4,-8.3 -0.1,-2.8 -0.2,-8.1 -0.6,-16 -0.3,-7.9 -0.5,-13.6 -0.6,-17 l 0.1,-11.7 c 0,-3.2 -0.1,-5.2 -0.3,-5.8 l -3.4,0.7 c -0.7,0 -1.1,-0.5 -1.1,-1.4 0,-0.9 1.5,-1.7 4.4,-2.3 2.9,-0.6 4.9,-0.9 6,-0.9 1.8,0 2.6,0.5 2.6,1.6 0,1.1 -0.4,1.6 -1.2,1.6 l -2.4,-0.1 c -1.1,0 -1.8,0.5 -2.1,1.6 -0.2,0.9 -0.3,3.5 -0.3,7.8 0,4.3 0.4,12.8 1.2,25.5 0.8,12.7 1.2,22.3 1.2,28.7 l -0.1,5.2 3.6,-0.3 c 1.7,0 2.6,0.8 2.6,2.5 l -1.7,1.3 z"
         inkscape:connector-curvature="0" /></g></g></svg>