<?xml version="1.0" encoding="utf-8"?>
<!-- Generator: Adobe Illustrator 18.1.1, SVG Export Plug-In . SVG Version: 6.00 Build 0)  -->
<!DOCTYPE svg PUBLIC "-//W3C//DTD SVG 1.1//EN" "http://www.w3.org/Graphics/SVG/1.1/DTD/svg11.dtd">
<svg version="1.1" id="Layer_1" xmlns="http://www.w3.org/2000/svg" xmlns:xlink="http://www.w3.org/1999/xlink" x="0px" y="0px"
	 viewBox="0 0 595.3 419.5" enable-background="new 0 0 595.3 419.5" xml:space="preserve">
<path d="M221.9,205.8l0.5,23.3c0,2.6-0.6,3.9-1.7,3.9c-0.7,0-1.2-0.5-1.6-1.4c-0.4-0.9-0.5-1.8-0.5-2.6l0.8-16.4
	c0-3.5-0.2-8.8-0.7-15.9c-0.5-7.1-0.7-12.5-0.7-16l0.1-9.4c0-6.9-0.6-10.3-1.7-10.3l-5.7,0.6c-0.5,0-1-0.2-1.4-0.5
	c-0.5-0.3-0.7-0.7-0.7-1.2c0-0.7,2.2-1.3,6.6-2c4.4-0.6,7.9-0.9,10.5-0.9c0.5,0,1,0.2,1.4,0.5c0.5,0.3,0.7,0.7,0.7,1.2
	c0,1-0.6,1.5-1.9,1.5l-3.7-0.3c-1.1,0-1.8,0.3-2.1,1c0.5,4.2,0.7,8.5,0.7,13l-0.1,12.1c0,7.9,0.5,13.5,1.4,17
	C222,203.9,221.9,204.8,221.9,205.8z"/>
<path d="M283.2,232l-3.2-0.5c-0.7,0-1.5,0.4-2.3,1.2c-1.5,0-2.4-0.3-2.8-0.8h-0.2c-3.1,0-4.8-0.6-5.3-1.7c0-0.7,0.8-1.1,2.3-1.1
	l2.2,0.1c1.3,0,2-1,2.1-2.9c0-1.9-0.1-4.3-0.3-7c-0.2-2.8-0.3-5.5-0.4-8.3s-0.2-8.1-0.6-16c-0.3-7.9-0.5-13.6-0.6-17l0.1-11.7
	c0-3.2-0.1-5.2-0.3-5.8l-3.4,0.7c-0.7,0-1.1-0.5-1.1-1.4s1.5-1.7,4.4-2.3c2.9-0.6,4.9-0.9,6-0.9c1.8,0,2.6,0.5,2.6,1.6
	c0,1.1-0.4,1.6-1.2,1.6l-2.4-0.1c-1.1,0-1.8,0.5-2.1,1.6c-0.2,0.9-0.3,3.5-0.3,7.8s0.4,12.8,1.2,25.5c0.8,12.7,1.2,22.3,1.2,28.7
	l-0.1,5.2l3.6-0.3c1.7,0,2.6,0.8,2.6,2.5L283.2,232z"/>
<path d="M274.1,162l-3.2-0.5c-0.7,0-4.2,0.5-4.2-5.2c0-1.9-0.1-4.3-0.3-7c-0.2-2.8-0.3-5.5-0.4-8.3c0-0.9,0-2.1-0.1-3.6
	c-0.1-3,3-3.4,3.2,0.5c0.3,6.4,0.5,11.6,0.5,15.5l-0.1,5.2l3.6-0.3c1.7,0,2.6,0.8,2.6,2.5L274.1,162z"/>
<path d="M274.1,159.8c0-1.7,0.9-2.5,2.6-2.5l3.6,0.3l-0.1-5.2c0-4,0.2-9.1,0.5-15.5c0.2-3.9,3.3-3.5,3.2-0.5c0,1.5-0.1,2.7-0.1,3.6
	c0,2.7-0.2,5.5-0.4,8.3c-0.2,2.8-0.3,5.1-0.3,7c0,5.7-3.4,5.2-4.2,5.2l-3.2,0.5L274.1,159.8z"/>
<path d="M274.1,165.7l-0.1-8.4c0-6.4,0.2-14.8,0.5-25.1c0.2-6.4,3.3-5.6,3.2-0.8c0,2.4-0.1,4.4-0.1,5.9c0,4.4-0.2,8.9-0.4,13.3
	c-0.2,4.5-0.3,8.3-0.3,11.4C276.9,171.3,274.1,165.7,274.1,165.7z"/>
<path d="M305.6,205.8l0.5,23.3c0,2.6-0.6,3.9-1.7,3.9c-0.7,0-1.2-0.5-1.6-1.4c-0.4-0.9-0.5-1.8-0.5-2.6l0.8-16.4
	c0-3.5-0.2-8.8-0.7-15.9c-0.5-7.1-0.7-12.5-0.7-16l0.1-9.4c0-6.9-0.6-10.3-1.7-10.3l-5.7,0.6c-0.5,0-1-0.2-1.4-0.5
	c-0.5-0.3-0.7-0.7-0.7-1.2c0-0.7,2.2-1.3,6.6-2c4.4-0.6,7.9-0.9,10.5-0.9c0.5,0,1,0.2,1.4,0.5c0.5,0.3,0.7,0.7,0.7,1.2
	c0,1-0.6,1.5-1.9,1.5l-3.7-0.3c-1.1,0-1.8,0.3-2.1,1c0.5,4.2,0.7,8.5,0.7,13l-0.1,12.1c0,7.9,0.5,13.5,1.4,17
	C305.7,203.9,305.6,204.8,305.6,205.8z"/>
<path d="M329.7,232.4l-3.1-0.1c-0.4,0-0.8,0.2-1.4,0.6c-0.6,0.4-1.1,0.6-1.5,0.6c-0.5,0-0.9-0.2-1.4-0.6c-0.5-0.4-0.7-0.9-0.7-1.5
	l0.6-4.5l-1-28.4l-1-41.8c0-0.7,0.4-1,1.3-1c1.3,0,1.9,0.6,1.9,1.8c0,15.4,0.2,25.2,0.5,29.3c0.3,4.1,0.5,6.7,0.5,7.6
	s-0.1,2.3-0.2,3.9l0.3,0.4c-0.1,1.8-0.2,3.5-0.2,5.3s0.2,5.3,0.5,10.4s0.5,8.7,0.6,10.9c-0.3,0.4-0.4,1.1-0.4,2s0.2,1.6,0.5,1.9
	c0.3,0.3,1,0.5,2,0.5c1,0,1.7-0.2,2.1-0.6h3.7c0.9,0.5,1.4,1,1.4,1.6c0,1.3-0.5,2-1.4,2c-0.2,0-0.7-0.1-1.5-0.4
	C331.4,232.3,330.7,232.4,329.7,232.4z"/>
<path d="M366.3,203.1l1.1,26.1v1.1c0,0.8-0.1,1.3-0.3,1.5c-0.5,0.5-1.1,0.7-1.7,0.7c-0.6,0-1.1-0.2-1.5-0.5s-0.6-0.7-0.6-1.2
	c0.2-0.4,0.3-0.8,0.3-1.2l-0.3-2v-9.9c0-0.9-1.8-1.6-5.3-2.3s-6.1-1-7.8-1c-0.7,0-1.2,1.2-1.8,3.6c-0.5,2.4-1,5.1-1.5,8
	s-1,4.7-1.5,5.4c-1.6,0-2.6-0.4-3.1-1.2c1-1.5,2-5.1,3-10.9c1-5.8,1.7-10,2.3-12.6c0.6-2.6,1.6-8.3,3.1-17.1
	c1.5-8.8,2.5-14.4,3.1-16.8c0.5-2.5,1-4.3,1.2-5.4s0.7-2.6,1.1-4.2c1.1-3.8,2-5.8,2.9-5.8c1,0,1.7,0.2,2.1,0.7
	c0.3,0.5,0.6,1.6,0.9,3.3c0.2,1.7,0.5,4,0.7,6.6s0.5,5.2,0.7,7.4c0.6,7,1,11.7,1.1,13.9c0.1,2.2,0.4,3.8,0.9,4.8
	c-0.1,2-0.2,3.8-0.2,5.2C365.4,200.8,365.7,202,366.3,203.1z M349.9,211.6c2.8,0.9,6.2,1.4,10.1,1.4c0.8,0,1.4-0.1,1.8-0.2l0.5,0.2
	c0.6,0,0.9-0.3,0.9-0.9c0-13.9-1.3-29-3.9-45.1c0-0.2-0.1-0.6-0.2-1.1c-0.1-0.5-0.2-0.9-0.2-1.2c-0.8,2.3-1.3,3.8-1.3,4.4l0.3,0.6
	c-0.2,0.2-0.6,1.4-1.1,3.4c-0.5,2.1-1.2,6.3-2.2,12.8c-0.9,6.5-1.6,10.6-2,12.5c-0.4,1.8-0.8,3.5-1.3,5c-0.9,3.3-1.4,5.9-1.4,7.6
	V211.6z"/>
<text transform="matrix(1 0 0 1 205.1735 533.9231)" font-family="'AmaticSC-Regular'" font-size="100">TOITLA</text>
<g>
	<path d="M259.1,182.7l-0.9,7.5l0.2,0.2c-0.5,1.3-0.8,2.5-0.8,3.5c0,1-0.4,2.1-1.1,3.2c-0.7,1.1-1.8,2.1-3.2,3
		c-1.4,0.9-2.9,1.3-4.6,1.3c-1.6,0-3.1-0.4-4.5-1.1c-1.4-0.7-2.6-1.6-3.5-2.8c-0.9-1.1-1.7-2.5-2.4-4c-0.7-1.5-1.2-3-1.6-4.5
		c-0.4-1.5-0.7-3-1-4.6c-0.4-2.6-0.6-4.9-0.6-6.9c0-1.9,0.1-4.1,0.4-6.6c0.3-2.5,0.5-4.1,0.5-4.8c0-0.7,0.1-1.3,0.1-1.9
		c0-0.5,0.1-1.2,0.2-2c0.1-0.8,0.3-1.4,0.5-2c0.2-0.6,0.5-1.2,1-1.8c0.4-0.6,0.9-1.1,1.6-1.5c1.4-0.9,3.3-1.3,5.7-1.3
		c2.5,0,4.5,0.4,6.1,1.2c0.2,0.2,0.8,0.7,1.8,1.4c1,0.7,1.7,1.4,2.1,2.1c0.5,0.7,1,2.3,1.6,4.8C258.3,171.7,259.1,177.6,259.1,182.7
		z M245.3,157.2c-4.9,0-7.4,5.7-7.4,17.2v2.3c0,2.7,0.3,5.6,1,8.6c0.7,3.1,1.4,5.6,2.2,7.5c0.8,1.9,1.8,3.6,3.2,4.9
		c1.4,1.4,2.9,2,4.6,2c2.3,0,3.9-1.3,5-4c1-2.7,1.7-5.1,1.9-7.2c0.2-2.9,0.3-4.7,0.3-5.6v-1.4c0-0.7,0-1.3,0-1.8
		c0-0.5,0-1.3-0.1-2.5c0-1.1-0.1-2.2-0.2-3c-0.1-0.9-0.2-2-0.4-3.2c-0.2-1.3-0.4-2.4-0.7-3.4s-0.6-2-1-3.2c-0.4-1.1-0.8-2.1-1.4-2.9
		c-0.5-0.8-1.1-1.6-1.8-2.3C249.2,157.9,247.4,157.2,245.3,157.2z"/>
</g>
<g>
	<path d="M255.4,252.5l-3.2-0.5c-0.7,0-1.5,0.4-2.3,1.2c-1.5,0-2.4-0.3-2.8-0.8h-0.2c-3.1,0-4.8-0.6-5.3-1.7c0-0.7,0.8-1.1,2.3-1.1
		l2.2,0.1c1.3,0,2-1,2.1-2.9c0-1.9-0.1-4.3-0.3-7c-0.2-2.8-0.3-5.5-0.4-8.3s-0.2-8.1-0.6-16c-0.3-7.9-0.6-16.2-0.6-16.2l3.3,1.9
		c0,0,0,9.6,0.3,13.9c0.8,12.7,1.2,22.3,1.2,28.7l-0.1,5.2l3.6-0.3c1.7,0,2.6,0.8,2.6,2.5L255.4,252.5z"/>
</g>
</svg>
