<?xml version="1.0" encoding="utf-8"?>
<!-- Generator: Adobe Illustrator 18.1.1, SVG Export Plug-In . SVG Version: 6.00 Build 0)  -->
<!DOCTYPE svg PUBLIC "-//W3C//DTD SVG 1.1//EN" "http://www.w3.org/Graphics/SVG/1.1/DTD/svg11.dtd">
<svg version="1.1" id="Layer_1" xmlns="http://www.w3.org/2000/svg" xmlns:xlink="http://www.w3.org/1999/xlink" x="0px" y="0px"
	 viewBox="0 0 595.3 419.5" enable-background="new 0 0 595.3 419.5" xml:space="preserve">
<g>
	<path d="M305.2,327.9c-21.4,0-42.8,0-64.2,0c-9.1,0-17.9-0.6-26.2-5c-11.1-5.9-17.9-15.3-18.8-27.5c-2-25.3,0.6-50.1,12.8-73
		c6.7-12.7,17-20.9,31.4-23.6c5.9-1.1,11.3-0.9,16.5,3c9.2,6.8,19.1,12.4,30.3,15.4c19.9,5.3,38.4,1.9,56-8.3
		c4.3-2.5,8.5-5.3,12.5-8.2c4.5-3.3,9.5-2.8,14.4-1.9c14.1,2.5,24.3,10.5,31.4,22.8c7.3,12.6,10.7,26.4,12.3,40.6
		c1,9,1.5,18.1,1.5,27.2c0,10.5-3.3,20-11,27.5c-6.6,6.4-14.6,10.3-23.6,10.6c-22.4,0.6-44.8,0.4-67.2,0.6
		C310.5,327.9,307.8,327.9,305.2,327.9z"/>
	<path d="M365.2,147.9c0,33.4-26.5,59.9-59.9,60c-33.4,0.1-60.1-26.6-60-60.2c0-33.2,26.6-59.7,59.9-59.8
		C338.5,87.9,365.2,114.5,365.2,147.9z"/>
</g>
</svg>
