<?xml version="1.0" encoding="UTF-8" standalone="no"?>
<!-- Generator: Adobe Illustrator 18.1.1, SVG Export Plug-In . SVG Version: 6.00 Build 0)  -->

<svg
   xmlns:dc="http://purl.org/dc/elements/1.1/"
   xmlns:cc="http://creativecommons.org/ns#"
   xmlns:rdf="http://www.w3.org/1999/02/22-rdf-syntax-ns#"
   xmlns:svg="http://www.w3.org/2000/svg"
   xmlns="http://www.w3.org/2000/svg"
   xmlns:sodipodi="http://sodipodi.sourceforge.net/DTD/sodipodi-0.dtd"
   xmlns:inkscape="http://www.inkscape.org/namespaces/inkscape"
   version="1.1"
   id="Layer_1"
   x="0px"
   y="0px"
   viewBox="0 0 205.5 195.23997"
   enable-background="new 0 0 595.3 419.5"
   xml:space="preserve"
   inkscape:version="0.91 r13725"
   sodipodi:docname="white-camera.svg"
   width="205.5"
   height="195.23997"><metadata
     id="metadata22"><rdf:RDF><cc:Work
         rdf:about=""><dc:format>image/svg+xml</dc:format><dc:type
           rdf:resource="http://purl.org/dc/dcmitype/StillImage" /><dc:title></dc:title></cc:Work></rdf:RDF></metadata><defs
     id="defs20" /><sodipodi:namedview
     pagecolor="#ffffff"
     bordercolor="#666666"
     borderopacity="1"
     objecttolerance="10"
     gridtolerance="10"
     guidetolerance="10"
     inkscape:pageopacity="0"
     inkscape:pageshadow="2"
     inkscape:window-width="1024"
     inkscape:window-height="743"
     id="namedview18"
     showgrid="false"
     inkscape:zoom="0.56257449"
     inkscape:cx="379.9466"
     inkscape:cy="89.149999"
     inkscape:window-x="11"
     inkscape:window-y="0"
     inkscape:window-maximized="0"
     inkscape:current-layer="g12"
     fit-margin-top="0"
     fit-margin-left="0"
     fit-margin-right="0"
     fit-margin-bottom="0" /><g
     id="g12"
     style="fill:#ffffff"
     transform="translate(-195,-103.66002)"><path
       stroke-miterlimit="10"
       d="m 302.1,296.4 c -17.9,0 -35.9,0 -53.8,0 -6.3,-0.7 -12.7,-1.9 -19,-1.9 -12.5,0 -21.2,-4.7 -23.1,-17.8 -2.4,-16.5 -4.6,-33.1 -6.5,-49.7 -1.1,-9.7 -1.5,-19.5 -2.2,-29.3 0,-10 0,-19.9 0,-29.9 1.5,-5.7 3.6,-11.3 4.3,-17 2,-15.1 10,-20.4 24.6,-16.3 1.7,0.5 3.8,-0.2 6.1,-0.3 0.3,-2.2 1.1,-4.2 0.8,-6.1 -2,-12.2 1.2,-20.1 15.3,-20.4 20.5,-0.5 41,-2 61.4,-1.4 3.7,0.1 8.3,7.2 10.6,12 2,4.1 1.3,9.5 1.9,16 8.2,-1.6 15.3,-2.5 22.1,-4.4 23.8,-6.6 44.2,5.7 48.1,29.8 2.4,14.6 3.5,29.4 5.3,44.1 0,6 0,12 0,17.9 -2.2,17.6 -6,35.3 -6,52.9 0,13.9 -5.2,16.5 -17.4,16.9 -24.3,0.8 -48.4,3.2 -72.5,4.9 z m 63.1,-113.6 c 13.6,17.9 13.2,48.7 -0.2,71.4 -14.8,25.1 -39.8,29.2 -65.5,32.4 25.9,-0.7 51.7,-1.7 77.3,-4 3.3,-0.3 8.6,-7.3 8.5,-11.1 -1.2,-38.2 -2.4,-76.4 -5.8,-114.4 -0.6,-6.8 -10.5,-15.8 -18,-18.2 -8.8,-2.8 -19.8,-0.6 -29.5,1.2 -12.1,2.2 -18.1,-0.5 -16.9,-13.9 1.1,-12.1 -4.8,-16.5 -17.1,-15.2 -15.8,1.6 -31.7,2.1 -47.6,2.3 -9,0.1 -13.1,3.6 -11.7,12.6 0.6,4.1 1.6,8.1 2.4,12.1 -29.1,3.4 -35.6,6.9 -35.1,27.7 0.8,34.6 4.1,69.2 7.5,103.7 0.6,5.9 6.7,15.4 11.3,16.1 19.9,3 40.3,3.4 60.5,4.7 0.1,-1.4 0.1,-2.7 0.2,-4.1 -39.4,-8.7 -59.5,-30.4 -60,-64.8 -0.5,-36 22.4,-67.1 55.7,-75.5 32,-8.1 74.4,10.7 84.4,37.4 -19.9,-25.1 -46.2,-33.3 -77.4,-30.8 -27.4,2.2 -45.1,15.2 -53.6,41.6 -8.6,26.6 -1.3,57.6 17,72.7 36.9,30.5 105.9,10 116.9,-36.5 3.7,-14.5 -1.9,-31.4 -3.3,-47.4 z"
       id="path14"
       style="fill:#ffffff;stroke:#ffffff;stroke-width:5;stroke-miterlimit:10"
       inkscape:connector-curvature="0" /><path
       stroke-miterlimit="10"
       d="m 328.6,179.1 c 20.5,5.6 33.1,38.2 19.1,62.8 -14.4,25.3 -43.8,34.5 -66,19.3 -24.7,-16.8 -40,-64.5 -1.8,-88.1 16.6,-10.3 34.9,-8.4 49.2,6.5 -34.8,-12.2 -48.4,-8.2 -61.8,18 -10.1,19.8 1.2,51.5 21.4,59.7 23.1,9.4 45.9,-1.6 55.3,-25.2 8.8,-22.1 -1.5,-37.8 -15.4,-53 z"
       id="path16"
       style="fill:#ffffff;stroke:#ffffff;stroke-width:5;stroke-miterlimit:10"
       inkscape:connector-curvature="0" /></g></svg>