<?xml version="1.0" encoding="UTF-8" standalone="no"?>
<!-- License Agreement at http://iconmonstr.com/license/ -->

<svg
   xmlns:dc="http://purl.org/dc/elements/1.1/"
   xmlns:cc="http://creativecommons.org/ns#"
   xmlns:rdf="http://www.w3.org/1999/02/22-rdf-syntax-ns#"
   xmlns:svg="http://www.w3.org/2000/svg"
   xmlns="http://www.w3.org/2000/svg"
   xmlns:sodipodi="http://sodipodi.sourceforge.net/DTD/sodipodi-0.dtd"
   xmlns:inkscape="http://www.inkscape.org/namespaces/inkscape"
   version="1.1"
   x="0px"
   y="0px"
   width="359.33401"
   height="412"
   viewBox="0 0 359.33401 412"
   enable-background="new 0 0 512 512"
   xml:space="preserve"
   id="svg51"
   inkscape:version="0.91 r13725"
   sodipodi:docname="white-post-details.svg"><metadata
     id="metadata58"><rdf:RDF><cc:Work
         rdf:about=""><dc:format>image/svg+xml</dc:format><dc:type
           rdf:resource="http://purl.org/dc/dcmitype/StillImage" /><dc:title></dc:title></cc:Work></rdf:RDF></metadata><defs
     id="defs56" /><sodipodi:namedview
     pagecolor="#ffffff"
     bordercolor="#666666"
     borderopacity="1"
     objecttolerance="10"
     gridtolerance="10"
     guidetolerance="10"
     inkscape:pageopacity="0"
     inkscape:pageshadow="2"
     inkscape:window-width="640"
     inkscape:window-height="480"
     id="namedview54"
     showgrid="false"
     inkscape:zoom="0.4609375"
     inkscape:cx="179.667"
     inkscape:cy="206"
     inkscape:window-x="0"
     inkscape:window-y="0"
     inkscape:window-maximized="0"
     inkscape:current-layer="svg51"
     fit-margin-top="0"
     fit-margin-left="0"
     fit-margin-right="0"
     fit-margin-bottom="0" /><path
     id="note-13-icon"
     d="m 276.679,252.715 -194.024,0 0,-30 194.023,0 0,30 z m -0.033,-65.417 -193.99,0 0,-30 193.99,0 0,30 z m 0,-65.333 -193.99,0 0,-30 193.99,0 0,30 z M 40,372 40,40 319.334,40 c 0,0 0,186.325 0,218.075 0,63.121 -77.928,37.833 -77.928,37.833 0,0 23.859,76.092 -35,76.092 -32.062,0 -48.064,0 -166.406,0 z M 359.334,261.528 359.334,0 0,0 l 0,412 207.016,0 c 68.165,0 152.318,-89.069 152.318,-150.472 z"
     style="fill:#ffffff"
     inkscape:connector-curvature="0" /></svg>