<?xml version="1.0" encoding="UTF-8" standalone="no"?>
<!-- Generator: Adobe Illustrator 18.1.1, SVG Export Plug-In . SVG Version: 6.00 Build 0)  -->

<svg
   xmlns:dc="http://purl.org/dc/elements/1.1/"
   xmlns:cc="http://creativecommons.org/ns#"
   xmlns:rdf="http://www.w3.org/1999/02/22-rdf-syntax-ns#"
   xmlns:svg="http://www.w3.org/2000/svg"
   xmlns="http://www.w3.org/2000/svg"
   xmlns:sodipodi="http://sodipodi.sourceforge.net/DTD/sodipodi-0.dtd"
   xmlns:inkscape="http://www.inkscape.org/namespaces/inkscape"
   version="1.1"
   id="Layer_1"
   x="0px"
   y="0px"
   viewBox="0 0 212.43515 226.06607"
   enable-background="new 0 0 595.3 419.5"
   xml:space="preserve"
   inkscape:version="0.91 r13725"
   sodipodi:docname="white-back.svg"
   width="212.43515"
   height="226.06607"><metadata
     id="metadata9"><rdf:RDF><cc:Work
         rdf:about=""><dc:format>image/svg+xml</dc:format><dc:type
           rdf:resource="http://purl.org/dc/dcmitype/StillImage" /><dc:title></dc:title></cc:Work></rdf:RDF></metadata><defs
     id="defs7" /><sodipodi:namedview
     pagecolor="#ffffff"
     bordercolor="#666666"
     borderopacity="1"
     objecttolerance="10"
     gridtolerance="10"
     guidetolerance="10"
     inkscape:pageopacity="0"
     inkscape:pageshadow="2"
     inkscape:window-width="640"
     inkscape:window-height="480"
     id="namedview5"
     showgrid="false"
     inkscape:zoom="0.56257449"
     inkscape:cx="92.285141"
     inkscape:cy="113.11606"
     inkscape:window-x="0"
     inkscape:window-y="0"
     inkscape:window-maximized="0"
     inkscape:current-layer="Layer_1"
     fit-margin-top="0"
     fit-margin-left="0"
     fit-margin-right="0"
     fit-margin-bottom="0" /><path
     d="m 96.435153,218.5 c 28.999997,-37.6 63.999997,-68.5 105.899997,-95 -40.2,-33.9 -79.1,-66.9 -119.099997,-100.7 -3.8,29.1 -7.7,57.7 -2.9,87.4 -4.8,3.5 -8.2,2.5 -8.3,-4.5 -0.3,-17.7 -0.5,-35.5 0.4,-53.1 0.6,-12 2.7,-24 4.9,-35.8 1,-5.2 4.1,-10 7.1,-16.8 2.3,3.4 3.6,4.7 3.4,5.2 -5.2,10 1.9,14.9 8.2,20.2 33.399997,28.1 66.699997,56.4 100.099997,84.5 4.7,4 9.9,7.4 16.3,12.2 -8.5,6.7 -13.2,11.1 -18.6,14.5 -34,21.6 -62.4,49.3 -87.8,80.3 -0.7,0.9 -1.4,1.9 -2.2,2.8 -8.399997,9 -13.399997,8.8 -17.999997,-2.8 -4,-10 -5.9,-20.9 -8.7,-31.4 -0.4,-1.4 -0.2,-3 -0.6,-4.4 -1.8,-7.1 -2.1,-15.4 -6.1,-21.1 -5.3,-7.6 -13.2,0.1 -20,0.1 -13.6,0.2 -27.1,1.1 -40.7000001,1.7 -7.1,0.3 -10.09999998,-2.6 -9.69999998,-10.1 0.6,-11.2 -0.1,-22.5 0.8,-33.6 0.29999998,-3.1 3.89999998,-8.3 6.49999998,-8.6 18.2000001,-2 36.4000001,-3.1 54.7000001,-4.1 2.6,-0.1 5.4,1.8 7.5,4.3 -20.4,1.9 -40.9,3.7 -61.9000001,5.6 0,13.8 0,26.3 0,40.9 22.2000001,-1.7 44.1000001,-3.4 68.4000001,-5.3 5.2,21.6 10.6,44.3 16.1,67.1 1.4,0.2 2.8,0.3 4.3,0.5 z"
     id="path3"
     style="fill:#ffffff"
     inkscape:connector-curvature="0" /></svg>