<?xml version="1.0" encoding="UTF-8" standalone="no"?>
<!-- The icon can be used freely in both personal and commercial projects with no attribution required, but always appreciated. 
You may NOT sub-license, resell, rent, redistribute or otherwise transfer the icon without express written permission from iconmonstr.com -->

<svg
   xmlns:dc="http://purl.org/dc/elements/1.1/"
   xmlns:cc="http://creativecommons.org/ns#"
   xmlns:rdf="http://www.w3.org/1999/02/22-rdf-syntax-ns#"
   xmlns:svg="http://www.w3.org/2000/svg"
   xmlns="http://www.w3.org/2000/svg"
   xmlns:sodipodi="http://sodipodi.sourceforge.net/DTD/sodipodi-0.dtd"
   xmlns:inkscape="http://www.inkscape.org/namespaces/inkscape"
   version="1.1"
   x="0px"
   y="0px"
   width="411.68048"
   height="410.306"
   viewBox="0 0 411.68048 410.306"
   enable-background="new 0 0 512 512"
   xml:space="preserve"
   id="svg24"
   inkscape:version="0.91 r13725"
   sodipodi:docname="white-chat.svg"><metadata
     id="metadata31"><rdf:RDF><cc:Work
         rdf:about=""><dc:format>image/svg+xml</dc:format><dc:type
           rdf:resource="http://purl.org/dc/dcmitype/StillImage" /><dc:title></dc:title></cc:Work></rdf:RDF></metadata><defs
     id="defs29" /><sodipodi:namedview
     pagecolor="#ffffff"
     bordercolor="#666666"
     borderopacity="1"
     objecttolerance="10"
     gridtolerance="10"
     guidetolerance="10"
     inkscape:pageopacity="0"
     inkscape:pageshadow="2"
     inkscape:window-width="640"
     inkscape:window-height="480"
     id="namedview27"
     showgrid="false"
     inkscape:zoom="0.4609375"
     inkscape:cx="205.84"
     inkscape:cy="205.153"
     inkscape:window-x="0"
     inkscape:window-y="0"
     inkscape:window-maximized="0"
     inkscape:current-layer="svg24"
     fit-margin-top="0"
     fit-margin-left="0"
     fit-margin-right="0"
     fit-margin-bottom="0" /><path
     id="speech-bubble-13-icon"
     d="M 0.824,342.257 C 15.783,312.503 32.388,271.662 31.537,243.187 11.385,218.886 0,187.571 0,155.675 0,65.749 87.239,0 184.909,0 c 97.062,0 184.909,65.255 184.909,155.675 0,94.153 -103.73,182.084 -246.055,147.132 -25.848,15.979 -82.846,32.136 -122.939,39.45 z m 389.45,0.805 c 27.171,-32.763 29.944,-81.761 -0.181,-118.854 -31.004,69.842 -107.466,122.041 -205.609,121.406 28.479,33.433 80.275,53.367 143.192,37.915 17.544,10.847 56.231,21.812 83.444,26.777 -10.153,-20.195 -21.424,-47.916 -20.846,-67.244 z"
     style="fill:#ffffff"
     inkscape:connector-curvature="0" /></svg>