<?xml version="1.0" encoding="UTF-8" standalone="no"?>
<!-- Generator: Adobe Illustrator 18.1.1, SVG Export Plug-In . SVG Version: 6.00 Build 0)  -->

<svg
   xmlns:dc="http://purl.org/dc/elements/1.1/"
   xmlns:cc="http://creativecommons.org/ns#"
   xmlns:rdf="http://www.w3.org/1999/02/22-rdf-syntax-ns#"
   xmlns:svg="http://www.w3.org/2000/svg"
   xmlns="http://www.w3.org/2000/svg"
   xmlns:sodipodi="http://sodipodi.sourceforge.net/DTD/sodipodi-0.dtd"
   xmlns:inkscape="http://www.inkscape.org/namespaces/inkscape"
   version="1.1"
   id="Layer_1"
   x="0px"
   y="0px"
   viewBox="0 0 190.56002 150.72"
   enable-background="new 0 0 595.3 419.5"
   xml:space="preserve"
   inkscape:version="0.91 r13725"
   sodipodi:docname="white-toitla-shadow.svg"
   width="190.56001"
   height="150.72"><metadata
     id="metadata109"><rdf:RDF><cc:Work
         rdf:about=""><dc:format>image/svg+xml</dc:format><dc:type
           rdf:resource="http://purl.org/dc/dcmitype/StillImage" /><dc:title></dc:title></cc:Work></rdf:RDF></metadata><defs
     id="defs107"><filter
       style="color-interpolation-filters:sRGB"
       inkscape:label="Drop Shadow"
       id="filter3753"><feFlood
         flood-opacity="0.498039"
         flood-color="rgb(0,0,0)"
         result="flood"
         id="feFlood3755" /><feComposite
         in="flood"
         in2="SourceGraphic"
         operator="in"
         result="composite1"
         id="feComposite3757" /><feGaussianBlur
         in="composite1"
         stdDeviation="1"
         result="blur"
         id="feGaussianBlur3759" /><feOffset
         dx="0"
         dy="1"
         result="offset"
         id="feOffset3761" /><feComposite
         in="SourceGraphic"
         in2="offset"
         operator="over"
         result="composite2"
         id="feComposite3763" /></filter></defs><sodipodi:namedview
     pagecolor="#ffffff"
     bordercolor="#666666"
     borderopacity="1"
     objecttolerance="10"
     gridtolerance="10"
     guidetolerance="10"
     inkscape:pageopacity="0"
     inkscape:pageshadow="2"
     inkscape:window-width="1440"
     inkscape:window-height="900"
     id="namedview105"
     showgrid="false"
     inkscape:zoom="4.5005959"
     inkscape:cx="114.88521"
     inkscape:cy="81.079474"
     inkscape:window-x="0"
     inkscape:window-y="0"
     inkscape:window-maximized="0"
     inkscape:current-layer="Layer_1"
     fit-margin-top="0"
     fit-margin-left="0"
     fit-margin-right="0"
     fit-margin-bottom="0" /><g
     id="g97"
     style="fill:#ffffff"
     transform="translate(-192.72,-115.04)" /><g
     id="g101"
     style="fill:#ffffff"
     transform="translate(-192.72,-115.04)"><path
       id="path103"
       style="fill:#ffffff;filter:url(#filter3753)"
       d="m 255.4,252.5 -3.2,-0.5 c -0.7,0 -1.5,0.4 -2.3,1.2 -1.5,0 -2.4,-0.3 -2.8,-0.8 l -0.2,0 c -3.1,0 -4.8,-0.6 -5.3,-1.7 0,-0.7 0.8,-1.1 2.3,-1.1 l 2.2,0.1 c 1.3,0 2,-1 2.1,-2.9 0,-1.9 -0.1,-4.3 -0.3,-7 -0.2,-2.8 -0.3,-5.5 -0.4,-8.3 -0.1,-2.8 -0.2,-8.1 -0.6,-16 -0.3,-7.9 -0.6,-16.2 -0.6,-16.2 l 3.3,1.9 c 0,0 0,9.6 0.3,13.9 0.8,12.7 1.2,22.3 1.2,28.7 l -0.1,5.2 3.6,-0.3 c 1.7,0 2.6,0.8 2.6,2.5 l -1.8,1.3 z m 3.7,-69.8 -0.9,7.5 0.2,0.2 c -0.5,1.3 -0.8,2.5 -0.8,3.5 0,1 -0.4,2.1 -1.1,3.2 -0.7,1.1 -1.8,2.1 -3.2,3 -1.4,0.9 -2.9,1.3 -4.6,1.3 -1.6,0 -3.1,-0.4 -4.5,-1.1 -1.4,-0.7 -2.6,-1.6 -3.5,-2.8 -0.9,-1.1 -1.7,-2.5 -2.4,-4 -0.7,-1.5 -1.2,-3 -1.6,-4.5 -0.4,-1.5 -0.7,-3 -1,-4.6 -0.4,-2.6 -0.6,-4.9 -0.6,-6.9 0,-1.9 0.1,-4.1 0.4,-6.6 0.3,-2.5 0.5,-4.1 0.5,-4.8 0,-0.7 0.1,-1.3 0.1,-1.9 0,-0.5 0.1,-1.2 0.2,-2 0.1,-0.8 0.3,-1.4 0.5,-2 0.2,-0.6 0.5,-1.2 1,-1.8 0.4,-0.6 0.9,-1.1 1.6,-1.5 1.4,-0.9 3.3,-1.3 5.7,-1.3 2.5,0 4.5,0.4 6.1,1.2 0.2,0.2 0.8,0.7 1.8,1.4 1,0.7 1.7,1.4 2.1,2.1 0.5,0.7 1,2.3 1.6,4.8 1.6,6.6 2.4,12.5 2.4,17.6 z m -13.8,-25.5 c -4.9,0 -7.4,5.7 -7.4,17.2 l 0,2.3 c 0,2.7 0.3,5.6 1,8.6 0.7,3.1 1.4,5.6 2.2,7.5 0.8,1.9 1.8,3.6 3.2,4.9 1.4,1.4 2.9,2 4.6,2 2.3,0 3.9,-1.3 5,-4 1,-2.7 1.7,-5.1 1.9,-7.2 0.2,-2.9 0.3,-4.7 0.3,-5.6 l 0,-1.4 c 0,-0.7 0,-1.3 0,-1.8 0,-0.5 0,-1.3 -0.1,-2.5 0,-1.1 -0.1,-2.2 -0.2,-3 -0.1,-0.9 -0.2,-2 -0.4,-3.2 -0.2,-1.3 -0.4,-2.4 -0.7,-3.4 -0.3,-1 -0.6,-2 -1,-3.2 -0.4,-1.1 -0.8,-2.1 -1.4,-2.9 -0.5,-0.8 -1.1,-1.6 -1.8,-2.3 -1.3,-1.3 -3.1,-2 -5.2,-2 z m 121,45.9 1.1,26.1 0,1.1 c 0,0.8 -0.1,1.3 -0.3,1.5 -0.5,0.5 -1.1,0.7 -1.7,0.7 -0.6,0 -1.1,-0.2 -1.5,-0.5 -0.4,-0.3 -0.6,-0.7 -0.6,-1.2 0.2,-0.4 0.3,-0.8 0.3,-1.2 l -0.3,-2 0,-9.9 c 0,-0.9 -1.8,-1.6 -5.3,-2.3 -3.5,-0.7 -6.1,-1 -7.8,-1 -0.7,0 -1.2,1.2 -1.8,3.6 -0.5,2.4 -1,5.1 -1.5,8 -0.5,2.9 -1,4.7 -1.5,5.4 -1.6,0 -2.6,-0.4 -3.1,-1.2 1,-1.5 2,-5.1 3,-10.9 1,-5.8 1.7,-10 2.3,-12.6 0.6,-2.6 1.6,-8.3 3.1,-17.1 1.5,-8.8 2.5,-14.4 3.1,-16.8 0.5,-2.5 1,-4.3 1.2,-5.4 0.2,-1.1 0.7,-2.6 1.1,-4.2 1.1,-3.8 2,-5.8 2.9,-5.8 1,0 1.7,0.2 2.1,0.7 0.3,0.5 0.6,1.6 0.9,3.3 0.2,1.7 0.5,4 0.7,6.6 0.2,2.6 0.5,5.2 0.7,7.4 0.6,7 1,11.7 1.1,13.9 0.1,2.2 0.4,3.8 0.9,4.8 -0.1,2 -0.2,3.8 -0.2,5.2 0.2,1.5 0.5,2.7 1.1,3.8 z m -16.4,8.5 c 2.8,0.9 6.2,1.4 10.1,1.4 0.8,0 1.4,-0.1 1.8,-0.2 l 0.5,0.2 c 0.6,0 0.9,-0.3 0.9,-0.9 0,-13.9 -1.3,-29 -3.9,-45.1 0,-0.2 -0.1,-0.6 -0.2,-1.1 -0.1,-0.5 -0.2,-0.9 -0.2,-1.2 -0.8,2.3 -1.3,3.8 -1.3,4.4 l 0.3,0.6 c -0.2,0.2 -0.6,1.4 -1.1,3.4 -0.5,2.1 -1.2,6.3 -2.2,12.8 -0.9,6.5 -1.6,10.6 -2,12.5 -0.4,1.8 -0.8,3.5 -1.3,5 -0.9,3.3 -1.4,5.9 -1.4,7.6 l 0,0.6 z m -20.2,20.8 -3.1,-0.1 c -0.4,0 -0.8,0.2 -1.4,0.6 -0.6,0.4 -1.1,0.6 -1.5,0.6 -0.5,0 -0.9,-0.2 -1.4,-0.6 -0.5,-0.4 -0.7,-0.9 -0.7,-1.5 l 0.6,-4.5 -1,-28.4 -1,-41.8 c 0,-0.7 0.4,-1 1.3,-1 1.3,0 1.9,0.6 1.9,1.8 0,15.4 0.2,25.2 0.5,29.3 0.3,4.1 0.5,6.7 0.5,7.6 0,0.9 -0.1,2.3 -0.2,3.9 l 0.3,0.4 c -0.1,1.8 -0.2,3.5 -0.2,5.3 0,1.8 0.2,5.3 0.5,10.4 0.3,5.1 0.5,8.7 0.6,10.9 -0.3,0.4 -0.4,1.1 -0.4,2 0,0.9 0.2,1.6 0.5,1.9 0.3,0.3 1,0.5 2,0.5 1,0 1.7,-0.2 2.1,-0.6 l 3.7,0 c 0.9,0.5 1.4,1 1.4,1.6 0,1.3 -0.5,2 -1.4,2 -0.2,0 -0.7,-0.1 -1.5,-0.4 -0.4,0 -1.1,0.1 -2.1,0.1 z m -24.1,-26.6 0.5,23.3 c 0,2.6 -0.6,3.9 -1.7,3.9 -0.7,0 -1.2,-0.5 -1.6,-1.4 -0.4,-0.9 -0.5,-1.8 -0.5,-2.6 l 0.8,-16.4 c 0,-3.5 -0.2,-8.8 -0.7,-15.9 -0.5,-7.1 -0.7,-12.5 -0.7,-16 l 0.1,-9.4 c 0,-6.9 -0.6,-10.3 -1.7,-10.3 l -5.7,0.6 c -0.5,0 -1,-0.2 -1.4,-0.5 -0.5,-0.3 -0.7,-0.7 -0.7,-1.2 0,-0.7 2.2,-1.3 6.6,-2 4.4,-0.6 7.9,-0.9 10.5,-0.9 0.5,0 1,0.2 1.4,0.5 0.5,0.3 0.7,0.7 0.7,1.2 0,1 -0.6,1.5 -1.9,1.5 l -3.7,-0.3 c -1.1,0 -1.8,0.3 -2.1,1 0.5,4.2 0.7,8.5 0.7,13 l -0.1,12.1 c 0,7.9 0.5,13.5 1.4,17 -0.1,0.9 -0.2,1.8 -0.2,2.8 z m -31.5,-40.1 -0.1,-8.4 c 0,-6.4 0.2,-14.8 0.5,-25.1 0.2,-6.4 3.3,-5.6 3.2,-0.8 0,2.4 -0.1,4.4 -0.1,5.9 0,4.4 -0.2,8.9 -0.4,13.3 -0.2,4.5 -0.3,8.3 -0.3,11.4 0,9.3 -2.8,3.7 -2.8,3.7 z m 0,-5.9 c 0,-1.7 0.9,-2.5 2.6,-2.5 l 3.6,0.3 -0.1,-5.2 c 0,-4 0.2,-9.1 0.5,-15.5 0.2,-3.9 3.3,-3.5 3.2,-0.5 0,1.5 -0.1,2.7 -0.1,3.6 0,2.7 -0.2,5.5 -0.4,8.3 -0.2,2.8 -0.3,5.1 -0.3,7 0,5.7 -3.4,5.2 -4.2,5.2 l -3.2,0.5 -1.6,-1.2 z m 0,2.2 -3.2,-0.5 c -0.7,0 -4.2,0.5 -4.2,-5.2 0,-1.9 -0.1,-4.3 -0.3,-7 -0.2,-2.8 -0.3,-5.5 -0.4,-8.3 0,-0.9 0,-2.1 -0.1,-3.6 -0.1,-3 3,-3.4 3.2,0.5 0.3,6.4 0.5,11.6 0.5,15.5 l -0.1,5.2 3.6,-0.3 c 1.7,0 2.6,0.8 2.6,2.5 l -1.6,1.2 z m 9.1,70 -3.2,-0.5 c -0.7,0 -1.5,0.4 -2.3,1.2 -1.5,0 -2.4,-0.3 -2.8,-0.8 l -0.2,0 c -3.1,0 -4.8,-0.6 -5.3,-1.7 0,-0.7 0.8,-1.1 2.3,-1.1 l 2.2,0.1 c 1.3,0 2,-1 2.1,-2.9 0,-1.9 -0.1,-4.3 -0.3,-7 -0.2,-2.8 -0.3,-5.5 -0.4,-8.3 -0.1,-2.8 -0.2,-8.1 -0.6,-16 -0.3,-7.9 -0.5,-13.6 -0.6,-17 l 0.1,-11.7 c 0,-3.2 -0.1,-5.2 -0.3,-5.8 l -3.4,0.7 c -0.7,0 -1.1,-0.5 -1.1,-1.4 0,-0.9 1.5,-1.7 4.4,-2.3 2.9,-0.6 4.9,-0.9 6,-0.9 1.8,0 2.6,0.5 2.6,1.6 0,1.1 -0.4,1.6 -1.2,1.6 l -2.4,-0.1 c -1.1,0 -1.8,0.5 -2.1,1.6 -0.2,0.9 -0.3,3.5 -0.3,7.8 0,4.3 0.4,12.8 1.2,25.5 0.8,12.7 1.2,22.3 1.2,28.7 l -0.1,5.2 3.6,-0.3 c 1.7,0 2.6,0.8 2.6,2.5 l -1.7,1.3 z m -61.3,-26.2 0.5,23.3 c 0,2.6 -0.6,3.9 -1.7,3.9 -0.7,0 -1.2,-0.5 -1.6,-1.4 -0.4,-0.9 -0.5,-1.8 -0.5,-2.6 l 0.8,-16.4 c 0,-3.5 -0.2,-8.8 -0.7,-15.9 -0.5,-7.1 -0.7,-12.5 -0.7,-16 l 0.1,-9.4 c 0,-6.9 -0.6,-10.3 -1.7,-10.3 l -5.7,0.6 c -0.5,0 -1,-0.2 -1.4,-0.5 -0.5,-0.3 -0.7,-0.7 -0.7,-1.2 0,-0.7 2.2,-1.3 6.6,-2 4.4,-0.6 7.9,-0.9 10.5,-0.9 0.5,0 1,0.2 1.4,0.5 0.5,0.3 0.7,0.7 0.7,1.2 0,1 -0.6,1.5 -1.9,1.5 l -3.7,-0.3 c -1.1,0 -1.8,0.3 -2.1,1 0.5,4.2 0.7,8.5 0.7,13 l -0.1,12.1 c 0,7.9 0.5,13.5 1.4,17 -0.1,0.9 -0.2,1.8 -0.2,2.8 z"
       inkscape:connector-curvature="0" /></g></svg>