<?xml version="1.0" encoding="UTF-8" standalone="no"?>
<!-- Generator: Adobe Illustrator 18.1.1, SVG Export Plug-In . SVG Version: 6.00 Build 0)  -->

<svg
   xmlns:dc="http://purl.org/dc/elements/1.1/"
   xmlns:cc="http://creativecommons.org/ns#"
   xmlns:rdf="http://www.w3.org/1999/02/22-rdf-syntax-ns#"
   xmlns:svg="http://www.w3.org/2000/svg"
   xmlns="http://www.w3.org/2000/svg"
   xmlns:sodipodi="http://sodipodi.sourceforge.net/DTD/sodipodi-0.dtd"
   xmlns:inkscape="http://www.inkscape.org/namespaces/inkscape"
   version="1.1"
   id="Layer_1"
   x="0px"
   y="0px"
   viewBox="0 0 280.0416 239.89507"
   enable-background="new 0 0 595.3 419.5"
   xml:space="preserve"
   inkscape:version="0.91 r13725"
   sodipodi:docname="white-heart.svg"
   width="280.0416"
   height="239.89507"><metadata
     id="metadata40"><rdf:RDF><cc:Work
         rdf:about=""><dc:format>image/svg+xml</dc:format><dc:type
           rdf:resource="http://purl.org/dc/dcmitype/StillImage" /><dc:title></dc:title></cc:Work></rdf:RDF></metadata><defs
     id="defs38" /><sodipodi:namedview
     pagecolor="#ffffff"
     bordercolor="#666666"
     borderopacity="1"
     objecttolerance="10"
     gridtolerance="10"
     guidetolerance="10"
     inkscape:pageopacity="0"
     inkscape:pageshadow="2"
     inkscape:window-width="640"
     inkscape:window-height="480"
     id="namedview36"
     showgrid="false"
     inkscape:zoom="0.56257449"
     inkscape:cx="126.18774"
     inkscape:cy="127.225"
     inkscape:window-x="0"
     inkscape:window-y="0"
     inkscape:window-maximized="0"
     inkscape:current-layer="Layer_1"
     fit-margin-top="0"
     fit-margin-left="0"
     fit-margin-right="0"
     fit-margin-bottom="0" /><path
     d="m 139.93775,33.62006 c 3.7,-3.2 7.1,-6.5 10.7,-9.4 10.4,-8.3 21,-16.1000003 33.8,-20.5000003 7.5,-2.6 15.1,-3.90000004 23,-3.70000004 10.1,0.2 20.1,1.40000004 29.6,5.00000004 22.4,8.5000003 35.9,24.6000003 41,48.1000003 5,22.9 0.5,43.9 -11.9,63.5 -6.4,10.1 -14.1,19.2 -22.7,27.5 -32,30.8 -64,61.6 -95.9,92.4 -4.7,4.5 -10.3,4.5 -15,0 -31.8,-30.7 -63.600001,-61.5 -95.500001,-92.1 -11.4,-10.9 -21.2,-23.1 -28.1999998,-37.2 -10.9,-21.7 -11.5,-44.1 -3,-66.6 5.5999998,-14.7 15.9999998,-25.6 30.1999998,-32.6000003 13.6,-6.7 28.1,-8.60000004 43,-7.70000004 12.6,0.70000004 23.900001,5.50000004 34.400001,12.20000034 9.4,6.1 18.3,12.9 26.5,21.1 z"
     id="path34"
     style="fill:#ffffff"
     inkscape:connector-curvature="0" /></svg>