<?xml version="1.0" encoding="UTF-8" standalone="no"?>
<!-- The icon can be used freely in both personal and commercial projects with no attribution required, but always appreciated. 
You may NOT sub-license, resell, rent, redistribute or otherwise transfer the icon without express written permission from iconmonstr.com -->

<svg
   xmlns:dc="http://purl.org/dc/elements/1.1/"
   xmlns:cc="http://creativecommons.org/ns#"
   xmlns:rdf="http://www.w3.org/1999/02/22-rdf-syntax-ns#"
   xmlns:svg="http://www.w3.org/2000/svg"
   xmlns="http://www.w3.org/2000/svg"
   xmlns:sodipodi="http://sodipodi.sourceforge.net/DTD/sodipodi-0.dtd"
   xmlns:inkscape="http://www.inkscape.org/namespaces/inkscape"
   version="1.1"
   x="0px"
   y="0px"
   width="410.68909"
   height="394.07001"
   viewBox="0 0 410.68909 394.07001"
   enable-background="new 0 0 512 512"
   xml:space="preserve"
   id="svg11"
   inkscape:version="0.91 r13725"
   sodipodi:docname="white-heart-empty.svg"><metadata
     id="metadata18"><rdf:RDF><cc:Work
         rdf:about=""><dc:format>image/svg+xml</dc:format><dc:type
           rdf:resource="http://purl.org/dc/dcmitype/StillImage" /><dc:title></dc:title></cc:Work></rdf:RDF></metadata><defs
     id="defs16" /><sodipodi:namedview
     pagecolor="#ffffff"
     bordercolor="#666666"
     borderopacity="1"
     objecttolerance="10"
     gridtolerance="10"
     guidetolerance="10"
     inkscape:pageopacity="0"
     inkscape:pageshadow="2"
     inkscape:window-width="640"
     inkscape:window-height="480"
     id="namedview14"
     showgrid="false"
     fit-margin-top="0"
     fit-margin-left="0"
     fit-margin-right="0"
     fit-margin-bottom="0"
     inkscape:zoom="0.4609375"
     inkscape:cx="205.34422"
     inkscape:cy="197.035"
     inkscape:window-x="0"
     inkscape:window-y="0"
     inkscape:window-maximized="0"
     inkscape:current-layer="svg11" /><path
     id="favorite-3-icon"
     d="M 205.34222,394.07 C 53.502219,246.283 10.816219,191.923 1.572219,136.194 -9.736781,68.02 41.010219,0 120.08222,0 c 33.889,0 64.684,13.021 85.26,34.764 20.575,-21.743 51.372,-34.764 85.258,-34.764 78.727,0 129.877,67.68 118.512,136.194 -9.043,54.517 -48.909,107.153 -203.77,257.876 z M 120.08222,40 c -31.930001,0 -58.846001,16.073 -72.004001,42.996 -33.693,68.938 42.189,138.947 157.264001,254.254 115.512,-115.744 190.881,-185.473 157.264,-254.254 C 349.44822,56.073 322.53022,40 290.60022,40 c -51.453,0 -73.387,40.516 -85.258,59.65 -11.151,-17.971 -31.196,-59.65 -85.26,-59.65 z"
     style="fill:#ffffff"
     inkscape:connector-curvature="0" /></svg>