<?xml version="1.0" encoding="UTF-8" standalone="no"?>
<!-- The icon can be used freely in both personal and commercial projects with no attribution required, but always appreciated. 
You may NOT sub-license, resell, rent, redistribute or otherwise transfer the icon without express written permission from iconmonstr.com -->

<svg
   xmlns:dc="http://purl.org/dc/elements/1.1/"
   xmlns:cc="http://creativecommons.org/ns#"
   xmlns:rdf="http://www.w3.org/1999/02/22-rdf-syntax-ns#"
   xmlns:svg="http://www.w3.org/2000/svg"
   xmlns="http://www.w3.org/2000/svg"
   xmlns:sodipodi="http://sodipodi.sourceforge.net/DTD/sodipodi-0.dtd"
   xmlns:inkscape="http://www.inkscape.org/namespaces/inkscape"
   version="1.1"
   x="0px"
   y="0px"
   width="370"
   height="412"
   viewBox="0 0 370 412"
   enable-background="new 0 0 512 512"
   xml:space="preserve"
   id="svg69"
   inkscape:version="0.91 r13725"
   sodipodi:docname="white-share.svg"><metadata
     id="metadata76"><rdf:RDF><cc:Work
         rdf:about=""><dc:format>image/svg+xml</dc:format><dc:type
           rdf:resource="http://purl.org/dc/dcmitype/StillImage" /><dc:title></dc:title></cc:Work></rdf:RDF></metadata><defs
     id="defs74" /><sodipodi:namedview
     pagecolor="#ffffff"
     bordercolor="#666666"
     borderopacity="1"
     objecttolerance="10"
     gridtolerance="10"
     guidetolerance="10"
     inkscape:pageopacity="0"
     inkscape:pageshadow="2"
     inkscape:window-width="640"
     inkscape:window-height="480"
     id="namedview72"
     showgrid="false"
     inkscape:zoom="0.4609375"
     inkscape:cx="185"
     inkscape:cy="206"
     inkscape:window-x="0"
     inkscape:window-y="0"
     inkscape:window-maximized="0"
     inkscape:current-layer="svg69"
     fit-margin-top="0"
     fit-margin-left="0"
     fit-margin-right="0"
     fit-margin-bottom="0" /><path
     id="share-icon"
     d="m 285.814,121.815 c -15.021,0 -29.121,3.938 -41.329,10.834 -8.066,4.557 -17.998,4.275 -25.799,-0.721 L 131.375,76.019 C 124.626,71.697 120.362,64.399 119.896,56.398 118.084,25.265 92.213,0 60,0 26.863,0 0,26.863 0,60 c 0,42.486 42.832,71.156 81.814,55.898 7.459,-2.919 15.866,-2.083 22.612,2.236 l 75.168,48.134 c 13.644,8.737 21.974,23.859 22.036,40.06 0,0.004 0,0.008 0,0.012 0.062,15.71 -7.933,30.359 -21.163,38.831 l -76.042,48.693 C 97.69,298.177 89.262,299.015 81.814,296.1 42.785,280.828 0,309.574 0,352 c 0,33.137 26.863,60 60,60 32.186,0 58.085,-25.241 59.897,-56.397 0.464,-7.988 4.74,-15.307 11.479,-19.622 l 87.31,-55.909 c 7.793,-4.99 17.741,-5.272 25.799,-0.721 12.208,6.896 26.308,10.835 41.329,10.835 46.495,0 84.186,-37.693 84.186,-84.186 0,-46.494 -37.691,-84.185 -84.186,-84.185 z"
     style="fill:#ffffff"
     inkscape:connector-curvature="0" /></svg>